# xmcd CD database file
#
# Track frame offsets:
#	150
#	16347
#	36065
#	49907
#	65314
#	80127
#	98415
#	117565
#	133765
#	154322
#	174277
#	187917
#
# Disc length: 2772 seconds
#
# Revision: 1
# Processed by: cddbd v1.5.2PL0 Copyright (c) Steve Scherf et al.
# Submitted via: CDex 1.79
#
DISCID=980ad20c
DTITLE=Gina Jeffreys - Somebody's Daughter
DYEAR=1998
DGENRE=Country
TTITLE0=Fool Like That
TTITLE1=Somebody's Daughter
TTITLE2=You Fool
TTITLE3=Dancin With Elvis
TTITLE4=Love Without A Doubt
TTITLE5=Have We Forgotten What Love Is (featuring Billy Dean)
TTITLE6=That'll Be Me
TTITLE7=The Faint Of Heart
TTITLE8=Saving Grace
TTITLE9=All We Have Is Love
TTITLE10=Trouble Is A Woman
TTITLE11=What Did I Do
EXTD=YEAR: 1998
EXTT0=
EXTT1=
EXTT2=
EXTT3=
EXTT4=
EXTT5=
EXTT6=
EXTT7=
EXTT8=
EXTT9=
EXTT10=
EXTT11=
PLAYORDER=
